<svg width="36" height="35" viewBox="0 0 36 35" fill="none" xmlns="http://www.w3.org/2000/svg">
<circle cx="15.6667" cy="10.5" r="4.66667" stroke="white" stroke-width="1.5"/>
<ellipse cx="15.6667" cy="23.3333" rx="8.16667" ry="4.66667" stroke="white" stroke-width="1.5"/>
<path d="M25.05 17.9265L25.4937 17.3219L25.4937 17.3219L25.05 17.9265ZM26.1667 13.6399L25.648 14.1817C25.938 14.4594 26.3953 14.4594 26.6854 14.1817L26.1667 13.6399ZM27.2833 17.9266L26.8397 17.3219L26.8397 17.3219L27.2833 17.9266ZM26.1667 18.4655L26.1667 19.2155L26.1667 19.2155L26.1667 18.4655ZM25.4937 17.3219C25.0026 16.9615 24.457 16.5083 24.0415 16.028C23.6064 15.5249 23.4167 15.1095 23.4167 14.8129H21.9167C21.9167 15.6648 22.4064 16.4304 22.9069 17.0092C23.4271 17.6106 24.0731 18.14 24.6063 18.5312L25.4937 17.3219ZM23.4167 14.8129C23.4167 14.0974 23.748 13.751 24.0742 13.6367C24.4214 13.515 25.0099 13.5707 25.648 14.1817L26.6854 13.0982C25.7485 12.2012 24.587 11.8674 23.578 12.2211C22.5479 12.5822 21.9167 13.5763 21.9167 14.8129H23.4167ZM27.727 18.5312C28.2602 18.14 28.9063 17.6106 29.4264 17.0092C29.9269 16.4304 30.4167 15.6648 30.4167 14.8129H28.9167C28.9167 15.1095 28.7269 15.5249 28.2919 16.028C27.8764 16.5084 27.3308 16.9615 26.8397 17.3219L27.727 18.5312ZM30.4167 14.8129C30.4167 13.5763 29.7855 12.5822 28.7554 12.2211C27.7463 11.8674 26.5849 12.2012 25.648 13.0982L26.6854 14.1817C27.3234 13.5707 27.912 13.515 28.2592 13.6367C28.5854 13.751 28.9167 14.0974 28.9167 14.8129H30.4167ZM24.6063 18.5312C25.0449 18.853 25.4937 19.2155 26.1667 19.2155L26.1667 17.7155C26.1149 17.7155 26.0775 17.709 25.9988 17.6675C25.8885 17.6093 25.7549 17.5135 25.4937 17.3219L24.6063 18.5312ZM26.8397 17.3219C26.5784 17.5135 26.4448 17.6093 26.3346 17.6675C26.2559 17.709 26.2184 17.7155 26.1667 17.7155L26.1667 19.2155C26.8396 19.2155 27.2884 18.853 27.727 18.5312L26.8397 17.3219Z" fill="white"/>
</svg>
