<svg width="35" height="35" viewBox="0 0 35 35" fill="none" xmlns="http://www.w3.org/2000/svg">
<path d="M6.25796 18.6178C5.81528 15.5412 5.59394 14.003 6.22447 12.6877C6.85501 11.3725 8.1971 10.573 10.8813 8.97406L12.4969 8.01163C14.9344 6.55962 16.1532 5.83362 17.4999 5.83362C18.8466 5.83362 20.0653 6.55962 22.5028 8.01163L24.1185 8.97406C26.8027 10.573 28.1448 11.3725 28.7753 12.6877C29.4058 14.003 29.1845 15.5412 28.7418 18.6178L28.4166 20.8781C27.8479 24.8301 27.5636 26.8061 26.1927 27.9865C24.8218 29.167 22.8113 29.167 18.7903 29.167H16.2095C12.1885 29.167 10.178 29.167 8.80708 27.9865C7.43617 26.8061 7.15184 24.83 6.58319 20.878L6.25796 18.6178Z" stroke="white" stroke-width="1.5"/>
<path d="M21 24.5H14" stroke="white" stroke-width="1.5" stroke-linecap="round"/>
</svg>
