<svg width="36" height="35" viewBox="0 0 36 35" fill="none" xmlns="http://www.w3.org/2000/svg">
<path d="M6.33334 17.5C6.33334 12.0003 6.33334 9.25046 8.04189 7.54192C9.75043 5.83337 12.5003 5.83337 18 5.83337C23.4997 5.83337 26.2496 5.83337 27.9581 7.54192C29.6667 9.25046 29.6667 12.0003 29.6667 17.5C29.6667 22.9998 29.6667 25.7496 27.9581 27.4582C26.2496 29.1667 23.4997 29.1667 18 29.1667C12.5003 29.1667 9.75043 29.1667 8.04189 27.4582C6.33334 25.7496 6.33334 22.9998 6.33334 17.5Z" stroke="white" stroke-width="1.5"/>
<path d="M6.33334 18.6666H10.0203C11.0763 18.6666 11.6044 18.6666 12.0685 18.8801C12.5326 19.0936 12.8763 19.4945 13.5635 20.2963L14.2698 21.1203C14.9571 21.9221 15.3007 22.323 15.7649 22.5365C16.229 22.75 16.757 22.75 17.813 22.75H18.187C19.243 22.75 19.771 22.75 20.2352 22.5365C20.6993 22.323 21.0429 21.9221 21.7302 21.1203L22.4365 20.2963C23.1238 19.4945 23.4674 19.0936 23.9315 18.8801C24.3957 18.6666 24.9237 18.6666 25.9797 18.6666H29.6667" stroke="white" stroke-width="1.5" stroke-linecap="round"/>
</svg>
