<svg width="37" height="43" viewBox="0 0 37 43" fill="none" xmlns="http://www.w3.org/2000/svg">
<path d="M10.9414 0.546862C10.6777 0.617174 10.2559 0.810534 10.0098 0.968737C9.18359 1.51366 8.95508 1.8828 7.82129 4.40526L6.7666 6.75194L6.18652 6.9453C5.1582 7.28807 4.49902 7.87694 4.02441 8.89647L3.77832 9.41503L3.75195 13.3437L3.72559 17.2812H3.2334C2.96094 17.2812 2.58301 17.3252 2.38086 17.3867C1.89746 17.5273 1.16797 18.2568 1.02734 18.7402C0.87793 19.2412 0.87793 23.7588 1.02734 24.2598C1.16797 24.7432 1.89746 25.4726 2.38086 25.6133C2.58301 25.6748 2.96094 25.7187 3.2334 25.7187H3.72559L3.75195 29.6562L3.77832 33.585L4.02441 34.1035C4.49902 35.123 5.1582 35.7119 6.18652 36.0547L6.7666 36.248L7.82129 38.5947C8.95508 41.1172 9.18359 41.4863 10.0098 42.0225C10.8799 42.6025 10.748 42.5937 18.5 42.5937C22.8857 42.5937 25.6279 42.5586 25.874 42.4971C26.542 42.3476 27.1924 41.9697 27.667 41.4512C28.0537 41.0381 28.2559 40.6514 29.1787 38.6123L30.2334 36.248L30.8135 36.0547C31.8418 35.7119 32.501 35.123 32.9756 34.1035L33.2217 33.585L33.248 29.6475L33.2744 25.7187H33.7842C34.54 25.7187 35.041 25.5078 35.4893 25.0156C35.7002 24.7871 35.9199 24.4355 35.9727 24.2422C36.1221 23.7676 36.1221 19.2324 35.9727 18.7578C35.9199 18.5644 35.7002 18.2129 35.4893 17.9844C35.041 17.4922 34.54 17.2812 33.7842 17.2812H33.2744L33.248 13.3437L33.2217 9.41503L32.9756 8.89647C32.501 7.87694 31.8418 7.28807 30.8135 6.9453L30.2334 6.75194L29.1787 4.38768C28.1592 2.10253 28.1064 2.01464 27.5527 1.45214C27.1309 1.03026 26.8408 0.819323 26.4541 0.66112L25.9268 0.450182L18.6758 0.432604C12.5059 0.415026 11.3545 0.432604 10.9414 0.546862ZM25.8213 1.95311C26.5596 2.19921 26.8145 2.56835 27.7549 4.68651C28.2207 5.7412 28.6074 6.62889 28.6074 6.66405C28.6074 6.708 24.0635 6.73436 18.5 6.73436C12.9453 6.73436 8.39258 6.708 8.39258 6.66405C8.39258 6.62889 8.7793 5.7412 9.24512 4.68651C9.9043 3.20116 10.1768 2.69139 10.4404 2.42772C11.0645 1.8037 10.7305 1.83007 18.4648 1.82128C24.582 1.81249 25.4609 1.83007 25.8213 1.95311ZM30.4004 8.24608C30.8838 8.38671 31.6133 9.1162 31.7539 9.5996C31.9033 10.1269 31.9033 32.873 31.7539 33.4004C31.6133 33.8838 30.8838 34.6133 30.4004 34.7539C29.873 34.9033 7.12695 34.9033 6.59961 34.7539C6.11621 34.6133 5.38672 33.8838 5.24609 33.4004C5.09668 32.873 5.09668 10.1269 5.24609 9.5996C5.37793 9.15136 6.11621 8.3955 6.54687 8.25487C7.01269 8.10546 29.9082 8.10546 30.4004 8.24608ZM3.73437 21.5V24.3125H3.25098C2.84668 24.3125 2.72363 24.2773 2.54785 24.0928L2.32812 23.8818V21.5V19.1182L2.54785 18.9072C2.72363 18.7226 2.84668 18.6875 3.25098 18.6875H3.73437V21.5ZM34.4521 18.9072L34.6719 19.1182V21.5V23.8818L34.4521 24.0928C34.2764 24.2773 34.1533 24.3125 33.749 24.3125H33.2656V21.5V18.6875H33.749C34.1533 18.6875 34.2764 18.7226 34.4521 18.9072ZM28.6074 36.3271C28.6074 36.3711 28.2207 37.2588 27.7549 38.3135C27.0957 39.7988 26.8232 40.3086 26.5684 40.5723C25.9268 41.2139 26.2256 41.1875 18.5 41.1875C10.7744 41.1875 11.0732 41.2139 10.4316 40.5723C10.1768 40.3086 9.9043 39.7988 9.24512 38.3135C8.7793 37.2588 8.39258 36.3711 8.39258 36.3271C8.39258 36.292 12.9453 36.2656 18.5 36.2656C24.0635 36.2656 28.6074 36.292 28.6074 36.3271Z" fill="white"/>
<path d="M14.6592 10.373C13.332 10.707 12.1895 11.7441 11.7149 13.0449C11.5742 13.4141 11.5303 13.7656 11.5215 14.3809C11.5127 15.3916 11.6797 15.998 12.1631 16.7188C12.3565 17.0088 13.7891 18.5117 15.3535 20.0674C17.9815 22.6865 18.2188 22.9062 18.5 22.9062C18.7813 22.9062 19.0186 22.6865 21.6465 20.0674C23.2109 18.5117 24.6436 17.0088 24.8369 16.7188C25.3027 16.0156 25.4873 15.3916 25.4873 14.4248C25.4873 13.124 24.9775 12.0254 23.9668 11.1904C22.5869 10.0391 20.4863 9.95996 18.9658 11.0059L18.5 11.3223L18.043 11.0059C17.1113 10.373 15.7051 10.1006 14.6592 10.373ZM16.7598 11.8936C16.9795 11.999 17.4014 12.2979 17.7002 12.5703C18.4033 13.2119 18.6055 13.2207 19.2295 12.6318C20.3457 11.5771 21.6113 11.4014 22.8154 12.1221C23.7031 12.6582 24.1953 13.625 24.0986 14.6621C24.0108 15.6289 23.8262 15.875 21.0488 18.6436L18.5 21.1924L15.9512 18.6436C13.1738 15.875 12.9893 15.6289 12.9014 14.6621C12.752 12.9922 14.1055 11.5859 15.7754 11.6826C16.0918 11.7002 16.5313 11.7969 16.7598 11.8936Z" fill="white"/>
<path d="M15.9951 24.4356C15.8984 24.5059 15.3096 25.5869 14.6768 26.8526C14.0527 28.1182 13.5078 29.1465 13.4814 29.1465C13.4463 29.1465 13.2529 28.8916 13.0508 28.5752C12.8398 28.2588 12.6025 27.96 12.5146 27.916C12.4268 27.8633 11.3457 27.8282 10.0186 27.8282H7.68066L7.46973 28.0479C7.3291 28.1797 7.25 28.3643 7.25 28.5313C7.25 28.6983 7.3291 28.8828 7.46973 29.0147L7.68066 29.2344H9.7373H11.7939L12.4619 30.2452C13.1738 31.3086 13.3584 31.4493 13.833 31.291C14.0264 31.2295 14.2637 30.8077 15.2568 28.8477L16.4521 26.4834L18.2891 29.5508C20.7939 33.7168 20.5566 33.6817 22.2793 30.2715C22.9297 28.9707 23.4922 27.916 23.5186 27.916C23.5537 27.916 23.7471 28.1709 23.9492 28.4873C24.1602 28.8037 24.3975 29.1026 24.4854 29.1465C24.5732 29.1993 25.6543 29.2344 26.9814 29.2344H29.3193L29.5303 29.0147C29.8203 28.7334 29.8203 28.3291 29.5303 28.0479L29.3193 27.8282H27.2627H25.2061L24.5381 26.8174C23.8262 25.7539 23.6416 25.6133 23.167 25.7715C22.9736 25.833 22.7363 26.2549 21.7432 28.2149L20.5479 30.5791L18.7637 27.5996C17.7881 25.9649 16.9092 24.5498 16.8125 24.4619C16.6016 24.2774 16.2324 24.2686 15.9951 24.4356Z" fill="white"/>
</svg>
